<mxfile host="65bd71144e">
    <diagram id="Q8ZCVBfkGdzVq4fk389N" name="Page-1">
        <mxGraphModel dx="1448" dy="876" grid="1" gridSize="10" guides="1" tooltips="1" connect="1" arrows="1" fold="1" page="1" pageScale="1" pageWidth="827" pageHeight="1169" math="1" shadow="0">
            <root>
                <mxCell id="0"/>
                <mxCell id="1" parent="0"/>
                <mxCell id="18" value="curve: LevyCCurve" style="shape=umlLifeline;perimeter=lifelinePerimeter;whiteSpace=wrap;html=1;container=1;collapsible=0;recursiveResize=0;outlineConnect=0;fontFamily=Alegreya;" parent="1" vertex="1">
                    <mxGeometry x="-715" y="213" width="115" height="440" as="geometry"/>
                </mxCell>
                <mxCell id="37" value="" style="html=1;points=[];perimeter=orthogonalPerimeter;fontFamily=Alegreya;" parent="18" vertex="1">
                    <mxGeometry x="52.5" y="77" width="10" height="363" as="geometry"/>
                </mxCell>
                <mxCell id="144" value="" style="html=1;points=[[0,0,0,0,5],[0,1,0,0,-5],[1,0,0,0,5],[1,1,0,0,-5]];perimeter=orthogonalPerimeter;outlineConnect=0;targetShapes=umlLifeline;portConstraint=eastwest;newEdgeStyle={&quot;curved&quot;:0,&quot;rounded&quot;:0};" vertex="1" parent="18">
                    <mxGeometry x="62.5" y="107" width="10" height="143" as="geometry"/>
                </mxCell>
                <mxCell id="145" value="&lt;font data-font-src=&quot;https://fonts.googleapis.com/css?family=Alegreya&quot; face=&quot;Alegreya&quot;&gt;drawPart(106, 1)&lt;/font&gt;" style="html=1;align=left;spacingLeft=2;endArrow=block;rounded=0;edgeStyle=orthogonalEdgeStyle;curved=0;rounded=0;" edge="1" target="144" parent="18" source="37">
                    <mxGeometry x="-0.8293" y="10" relative="1" as="geometry">
                        <mxPoint x="65" y="100" as="sourcePoint"/>
                        <Array as="points">
                            <mxPoint x="160" y="87"/>
                            <mxPoint x="160" y="107"/>
                        </Array>
                        <mxPoint as="offset"/>
                    </mxGeometry>
                </mxCell>
                <mxCell id="146" value="" style="html=1;points=[[0,0,0,0,5],[0,1,0,0,-5],[1,0,0,0,5],[1,1,0,0,-5]];perimeter=orthogonalPerimeter;outlineConnect=0;targetShapes=umlLifeline;portConstraint=eastwest;newEdgeStyle={&quot;curved&quot;:0,&quot;rounded&quot;:0};" vertex="1" parent="18">
                    <mxGeometry x="72.5" y="147" width="10" height="23" as="geometry"/>
                </mxCell>
                <mxCell id="147" value="&lt;font data-font-src=&quot;https://fonts.googleapis.com/css?family=Alegreya&quot; face=&quot;Alegreya&quot;&gt;drawPart(75, 0)&lt;/font&gt;" style="html=1;align=left;spacingLeft=2;endArrow=block;rounded=0;edgeStyle=orthogonalEdgeStyle;curved=0;rounded=0;" edge="1" parent="18" target="146">
                    <mxGeometry x="-0.8293" y="10" relative="1" as="geometry">
                        <mxPoint x="73" y="127" as="sourcePoint"/>
                        <Array as="points">
                            <mxPoint x="170" y="127"/>
                            <mxPoint x="170" y="147"/>
                        </Array>
                        <mxPoint as="offset"/>
                    </mxGeometry>
                </mxCell>
                <mxCell id="150" value="" style="html=1;points=[[0,0,0,0,5],[0,1,0,0,-5],[1,0,0,0,5],[1,1,0,0,-5]];perimeter=orthogonalPerimeter;outlineConnect=0;targetShapes=umlLifeline;portConstraint=eastwest;newEdgeStyle={&quot;curved&quot;:0,&quot;rounded&quot;:0};" vertex="1" parent="18">
                    <mxGeometry x="72.5" y="207" width="10" height="23" as="geometry"/>
                </mxCell>
                <mxCell id="151" value="&lt;font data-font-src=&quot;https://fonts.googleapis.com/css?family=Alegreya&quot; face=&quot;Alegreya&quot;&gt;drawPart(75, 0)&lt;/font&gt;" style="html=1;align=left;spacingLeft=2;endArrow=block;rounded=0;edgeStyle=orthogonalEdgeStyle;curved=0;rounded=0;" edge="1" parent="18">
                    <mxGeometry x="-0.8293" y="10" relative="1" as="geometry">
                        <mxPoint x="72.5" y="186.98" as="sourcePoint"/>
                        <Array as="points">
                            <mxPoint x="169.5" y="186.98"/>
                            <mxPoint x="169.5" y="206.98"/>
                        </Array>
                        <mxPoint as="offset"/>
                        <mxPoint x="82" y="206.98" as="targetPoint"/>
                    </mxGeometry>
                </mxCell>
                <mxCell id="159" value="" style="html=1;points=[[0,0,0,0,5],[0,1,0,0,-5],[1,0,0,0,5],[1,1,0,0,-5]];perimeter=orthogonalPerimeter;outlineConnect=0;targetShapes=umlLifeline;portConstraint=eastwest;newEdgeStyle={&quot;curved&quot;:0,&quot;rounded&quot;:0};" vertex="1" parent="18">
                    <mxGeometry x="62.5" y="280" width="10" height="143" as="geometry"/>
                </mxCell>
                <mxCell id="160" value="&lt;font data-font-src=&quot;https://fonts.googleapis.com/css?family=Alegreya&quot; face=&quot;Alegreya&quot;&gt;drawPart(106, 1)&lt;/font&gt;" style="html=1;align=left;spacingLeft=2;endArrow=block;rounded=0;edgeStyle=orthogonalEdgeStyle;curved=0;rounded=0;" edge="1" parent="18">
                    <mxGeometry x="-0.8293" y="10" relative="1" as="geometry">
                        <mxPoint x="62.5" y="260" as="sourcePoint"/>
                        <Array as="points">
                            <mxPoint x="159.5" y="260"/>
                            <mxPoint x="159.5" y="280"/>
                        </Array>
                        <mxPoint as="offset"/>
                        <mxPoint x="71.5" y="280" as="targetPoint"/>
                    </mxGeometry>
                </mxCell>
                <mxCell id="162" value="&lt;font data-font-src=&quot;https://fonts.googleapis.com/css?family=Alegreya&quot; face=&quot;Alegreya&quot;&gt;drawPart(75, 0)&lt;/font&gt;" style="html=1;align=left;spacingLeft=2;endArrow=block;rounded=0;edgeStyle=orthogonalEdgeStyle;curved=0;rounded=0;" edge="1" parent="18">
                    <mxGeometry x="-0.8293" y="10" relative="1" as="geometry">
                        <mxPoint x="72.5" y="300" as="sourcePoint"/>
                        <Array as="points">
                            <mxPoint x="169.5" y="300"/>
                            <mxPoint x="169.5" y="320"/>
                        </Array>
                        <mxPoint as="offset"/>
                        <mxPoint x="82" y="320" as="targetPoint"/>
                    </mxGeometry>
                </mxCell>
                <mxCell id="161" value="" style="html=1;points=[[0,0,0,0,5],[0,1,0,0,-5],[1,0,0,0,5],[1,1,0,0,-5]];perimeter=orthogonalPerimeter;outlineConnect=0;targetShapes=umlLifeline;portConstraint=eastwest;newEdgeStyle={&quot;curved&quot;:0,&quot;rounded&quot;:0};" vertex="1" parent="18">
                    <mxGeometry x="72.5" y="320" width="10" height="23" as="geometry"/>
                </mxCell>
                <mxCell id="163" value="" style="html=1;points=[[0,0,0,0,5],[0,1,0,0,-5],[1,0,0,0,5],[1,1,0,0,-5]];perimeter=orthogonalPerimeter;outlineConnect=0;targetShapes=umlLifeline;portConstraint=eastwest;newEdgeStyle={&quot;curved&quot;:0,&quot;rounded&quot;:0};" vertex="1" parent="18">
                    <mxGeometry x="72.5" y="384" width="10" height="23" as="geometry"/>
                </mxCell>
                <mxCell id="38" value="drawPart(150, 2)" style="html=1;verticalAlign=bottom;endArrow=block;entryX=0;entryY=0;fontFamily=Alegreya;" parent="1" target="37" edge="1">
                    <mxGeometry relative="1" as="geometry">
                        <mxPoint x="-795" y="290.0000000000002" as="sourcePoint"/>
                    </mxGeometry>
                </mxCell>
                <mxCell id="39" value="" style="html=1;verticalAlign=bottom;endArrow=open;dashed=1;endSize=8;exitX=0;exitY=0.95;fontFamily=Alegreya;" parent="1" source="37" edge="1">
                    <mxGeometry relative="1" as="geometry">
                        <mxPoint x="-795" y="635" as="targetPoint"/>
                    </mxGeometry>
                </mxCell>
                <mxCell id="152" value="150 * 0,7071 = 106,065&#xa;106,065 * 0,7071 = 74,9985615&#xa;" style="text;whiteSpace=wrap;fontFamily=Alegreya;fontSource=https%3A%2F%2Ffonts.googleapis.com%2Fcss%3Ffamily%3DAlegreya;" vertex="1" parent="1">
                    <mxGeometry x="-795" y="130" width="170" height="30" as="geometry"/>
                </mxCell>
                <mxCell id="164" value="&lt;font data-font-src=&quot;https://fonts.googleapis.com/css?family=Alegreya&quot; face=&quot;Alegreya&quot;&gt;drawPart(75, 0)&lt;/font&gt;" style="html=1;align=left;spacingLeft=2;endArrow=block;rounded=0;edgeStyle=orthogonalEdgeStyle;curved=0;rounded=0;" edge="1" parent="1">
                    <mxGeometry x="-0.8293" y="10" relative="1" as="geometry">
                        <mxPoint x="-642" y="576.98" as="sourcePoint"/>
                        <Array as="points">
                            <mxPoint x="-545" y="576.98"/>
                            <mxPoint x="-545" y="596.98"/>
                        </Array>
                        <mxPoint as="offset"/>
                        <mxPoint x="-632.5" y="596.98" as="targetPoint"/>
                    </mxGeometry>
                </mxCell>
            </root>
        </mxGraphModel>
    </diagram>
</mxfile>
